<svg xmlns="http://www.w3.org/2000/svg" xmlns:xlink="http://www.w3.org/1999/xlink" id="Layer_1" width="34.322" height="34.667" x="0" y="0" enable-background="new 0 0 34.322 34.667" version="1.1" viewBox="0 0 34.322 34.667" xml:space="preserve"><path fill="none" stroke="#4D4D4D" stroke-linecap="round" stroke-linejoin="round" stroke-miterlimit="22.926" stroke-width="1.44" d="M19.939,13.543H3.335v10.57c8.164,0,12.432,0,16.604,0V13.543L19.939,13.543z"/><path fill="none" stroke="#4D4D4D" stroke-linecap="round" stroke-linejoin="round" stroke-miterlimit="22.926" stroke-width="1.44" d="M20.507,16.049c6.413,0,7.96,0,12.886,0V0.72H9.415v12.209"/><line x1="21.693" x2="21.693" y1="19.694" y2="16.297" fill="none" stroke="#4D4D4D" stroke-linecap="round" stroke-linejoin="round" stroke-miterlimit="22.926" stroke-width="1.44"/><line x1="20.371" x2="27.33" y1="20.268" y2="20.268" fill="none" stroke="#4D4D4D" stroke-linecap="round" stroke-linejoin="round" stroke-miterlimit="22.926" stroke-width="1.44"/><path fill="none" stroke="#4D4D4D" stroke-linecap="round" stroke-linejoin="round" stroke-miterlimit="22.926" stroke-width="1.44" d="M27.437,23.002h5.436c0.401,0,0.73,0.33,0.73,0.73v9.484c0,0.4-0.329,0.73-0.73,0.73h-5.436c-0.401,0-0.73-0.328-0.73-0.73v-9.484	C26.706,23.332,27.034,23.002,27.437,23.002L27.437,23.002z"/><line x1="23.261" x2="23.261" y1="19.708" y2="16.311" fill="none" stroke="#4D4D4D" stroke-linecap="round" stroke-linejoin="round" stroke-miterlimit="22.926" stroke-width="1.44"/><path fill="none" stroke="#4D4D4D" stroke-linecap="round" stroke-linejoin="round" stroke-miterlimit="22.926" stroke-width="1.44" d="M0.72,27.436c7.55,0,17.975,0,21.834,0"/></svg>